<?xml version="1.0" encoding="UTF-8" standalone="no"?>
<svg
   xmlns:dc="http://purl.org/dc/elements/1.1/"
   xmlns:cc="http://creativecommons.org/ns#"
   xmlns:rdf="http://www.w3.org/1999/02/22-rdf-syntax-ns#"
   xmlns:svg="http://www.w3.org/2000/svg"
   xmlns="http://www.w3.org/2000/svg"
   viewBox="0 0 498.66666 358.66666"
   height="358.66666"
   width="498.66666"
   id="svg4592"
   version="1.1">
  <metadata
     id="metadata4598">
    <rdf:RDF>
      <cc:Work
         rdf:about="">
        <dc:format>image/svg+xml</dc:format>
        <dc:type
           rdf:resource="http://purl.org/dc/dcmitype/StillImage" />
        <dc:title></dc:title>
      </cc:Work>
    </rdf:RDF>
  </metadata>
  <defs
     id="defs4596" />
  <g
     transform="translate(-276.05617,2.8636531)"
     id="g4608">
    <path
       id="path4610"
       d="m 316.22787,351.84406 c -7.14393,-3.53618 -11.15399,-9.09522 -12.00458,-16.64163 l -0.66256,-5.87821 h 8.04297 c 7.69264,0 8.10221,0.16993 9.40296,3.90126 2.76624,7.93524 14.4541,11.31907 22.00577,6.37103 7.73284,-5.06675 3.54971,-10.15985 -11.78368,-14.34705 -20.29442,-5.54194 -24.65762,-9.29843 -24.64956,-21.22192 0.01,-14.61556 8.94061,-21.84942 26.87565,-21.76915 13.20674,0.0591 21.34414,3.66579 25.16396,11.15324 1.44214,2.82683 2.62207,6.66359 2.62207,8.52613 0,3.25166 -0.31975,3.38646 -8.033,3.38646 -7.28829,0 -8.14763,-0.30151 -9.26951,-3.25227 -2.37932,-6.25808 -13.63702,-8.66073 -18.7785,-4.00775 -5.65775,5.12019 -1.85461,8.71088 13.32023,12.57615 13.05037,3.32412 16.8467,5.09547 21.42745,9.99793 2.83062,3.02942 3.33333,4.84355 3.33333,12.02891 0,10.16003 -2.60666,14.51733 -11.36057,18.99036 -8.24842,4.21473 -27.31298,4.31447 -35.65243,0.18651 z m 141.31631,-0.008 c -11.19265,-5.54067 -17.63664,-17.6956 -17.63664,-33.2674 0,-22.81234 12.86999,-36.28511 34.73833,-36.36538 16.85632,-0.0619 27.65722,7.27887 32.4233,22.0362 6.2226,19.26715 -0.69927,40.42756 -15.58098,47.63168 -8.18749,3.9635 -25.90248,3.94496 -33.94401,-0.0355 z m 27.33292,-14.73547 c 4.72151,-4.35093 7.03079,-10.506 7.02837,-18.73313 -0.003,-8.72066 -3.16529,-15.31576 -9.33126,-19.45811 -7.89288,-5.30251 -18.06336,-1.83388 -22.99794,7.84339 -3.28986,6.45185 -3.12325,19.26336 0.32407,24.91741 5.89999,9.67676 17.60673,12.22203 24.97676,5.43044 z m 219.6971,15.13651 c -19.26165,-9.01475 -25.38029,-38.27178 -12.03214,-57.53316 8.2106,-11.8479 28.66312,-16.30794 42.74593,-9.32152 7.1992,3.57149 13.17379,11.03581 14.62776,18.27513 l 0.87033,4.33333 -8.43926,-0.0288 c -8.19692,-0.028 -8.49672,-0.15248 -10.43928,-4.33333 -1.43476,-3.08796 -3.5388,-4.83649 -7.44483,-6.18693 -4.94653,-1.71019 -5.92167,-1.64918 -10.65493,0.66666 -13.15518,6.43639 -15.4013,28.6686 -3.96196,39.21579 2.94965,2.71961 4.93353,3.32057 10.77512,3.264 7.99669,-0.0775 11.57157,-2.33832 13.7986,-8.72679 l 1.34928,-3.8706 h -7.26398 -7.26397 v -6.66666 -6.66667 h 14.66667 14.66666 l 0.18164,14.33333 c 0.0999,7.88334 0.37462,16.58334 0.61047,19.33334 l 0.42883,5 h -5.85395 c -4.76295,0 -6.01844,-0.51824 -6.73651,-2.78068 -0.87969,-2.77167 -0.89329,-2.7706 -4.19646,0.33333 -4.60588,4.32804 -22.39402,5.12307 -30.43402,1.36023 z M 371.90754,318.65755 v -34.66667 h 8.66667 8.66667 l 0.0183,12.33334 0.0182,12.33333 12.17152,-12.33333 12.17153,-12.33334 h 9.81021 c 5.39563,0 9.81023,0.31947 9.81023,0.70994 0,0.39045 -7.22148,7.74045 -16.04772,16.33333 l -16.04773,15.6234 21.40728,16.66667 c 11.774,9.16666 21.99548,16.86666 22.7144,17.1111 0.71891,0.24446 1.30711,0.99446 1.30711,1.66667 0,0.67223 -4.96179,1.22223 -11.0262,1.22223 h -11.02619 l -16.31217,-13.40891 c -8.9717,-7.37491 -16.90991,-13.03949 -17.64047,-12.58799 -0.73057,0.45152 -1.3283,6.48554 -1.3283,13.40892 v 12.58798 h -8.66667 -8.66667 z m 146.66667,0 v -34.66667 h 22.06621 c 23.88495,0 27.19012,0.75806 32.44768,7.44196 5.7494,7.30916 5.1846,17.77148 -1.36187,25.2275 -2.97322,3.38632 -3.50846,4.7374 -2.20564,5.56762 3.86535,2.46322 5.39875,6.2166 6.48052,15.86275 0.62574,5.57963 1.5011,11.28973 1.94524,12.68915 0.73386,2.31216 0.0716,2.54436 -7.25689,2.54436 -9.09075,0 -8.57983,0.69312 -10.15477,-13.77631 -1.21004,-11.11691 -3.40588,-12.89036 -15.96048,-12.89036 h -10 v 13.33333 13.33334 h -8 -8 z m 39.21182,-5.74628 c 1.55387,-1.13621 2.38818,-3.47779 2.38818,-6.70272 0,-7.83657 -1.70176,-8.88433 -14.42992,-8.88433 h -11.17008 v 8.66666 8.66667 h 10.41182 c 6.4781,0 11.31412,-0.65977 12.8,-1.74628 z m 30.12151,5.74628 v -34.66667 h 8.66667 8.66666 v 34.66667 34.66667 h -8.66666 -8.66667 z m 29.33333,-0.0636 v -34.73028 l 8.22786,0.39695 8.22785,0.39696 13.43881,21.71585 13.43881,21.71587 0.36558,-22.0492 0.36557,-22.04919 h 7.30109 7.3011 v 34.73029 34.73028 l -8.1685,-0.39694 -8.16849,-0.39699 -13.49817,-21.61921 -13.49817,-21.61922 -0.36558,21.95255 -0.36557,21.95255 h -7.30109 -7.3011 v -34.7303 z m -248.4449,-90.9364 c 4.8972,-6.78333 18.28566,-25.23333 29.75213,-41 11.46647,-15.76666 26.14255,-35.96958 32.61349,-44.89537 l 11.76538,-16.2287 9.63049,12.89537 c 5.29679,7.09245 23.55748,31.95602 40.57933,55.25236 17.02186,23.29634 31.5119,42.00901 32.20008,41.58368 1.3793,-0.85246 -1.6222,-5.43864 -16.46788,-25.16238 l -9.95172,-13.2217 13.9806,-22.11163 c 7.68934,-12.1614 24.56214,-39.07389 37.49514,-59.80556 37.90808,-60.766867 35.11809,-56.626927 36.86177,-54.697671 0.85745,0.948714 4.88244,7.124936 8.94441,13.724936 4.06198,6.599999 28.3582,45.900005 53.99164,87.333335 25.63343,41.43333 47.04151,76.08333 47.57349,77 0.77168,1.32967 -33.28972,1.66667 -168.45255,1.66667 H 359.89196 Z m 114.4144,-52.68857 c -7.94002,-10.80461 -18.25078,-24.83985 -22.91282,-31.1894 l -8.47644,-11.54464 7.58595,-13.12203 c 4.17228,-7.21711 10.72236,-18.52202 14.55573,-25.122026 3.83339,-6.6 17.48162,-30.173211 30.3294,-52.384915 l 23.3596,-40.3849167 4.61518,7.7182493 c 8.41304,14.0696674 33.92338,58.3111014 36.20284,62.7849234 l 2.24184,4.400006 -20.28315,32.933329 c -11.15572,18.11333 -25.08608,40.43333 -30.95633,49.59999 -10.69356,16.69844 -17.26395,27.4057 -20.23668,32.9781 -1.49615,2.80453 -2.43016,1.83312 -16.02512,-16.66667 z"
       style="fill:#62768c;stroke-width:1.33333325" />
  </g>
</svg>
